# xmcd
#
# Track frame offsets:
#	150
#	22934
#	41680
#	61215
#	74862
#	92574
#	107110
#	124626
#	137596
#	153345
#	172450
#	190701
#	206281
#	220198
#	237863
#
# Disc length: 3393 seconds
#
# Revision: 1
# Processed by: cddbd v1.5.2PL0 Copyright (c) Steve Scherf et al.
# Submitted via: audiograbber 1.83.01
#
DISCID=d30d3f0f
DTITLE=Various Artist - NSCG4009
DYEAR=1900
DGENRE=
TTITLE0=TOBY KEITH - WHO'S THAT MAN
TTITLE1=JUDDS - JOHN DEERE TRACTOR
TTITLE2=DOUG SUPERNAW - YOU NEVER EVEN CALLED ME BY MY NAME
TTITLE3=GEORGE STRAIT - IF I KNOW ME
TTITLE4=MARY CHAPIN CARPENTER - SHUT UP AND KISS ME
TTITLE5=MARK CHESNUTT - IT SURE IS MONDAY
TTITLE6=RODNEY CROWELL - BIG HEART
TTITLE7=TURNER NICHOLS - SHE LOVES TO HEAR ME ROCK
TTITLE8=REBA MCENTIRE - WALK ON
TTITLE9=JOHN MICHAEL MONTGOMERY - IF YOU'VE GOT LOVE
TTITLE10=BILLY DEAN - COWBOY BAND
TTITLE11=JOHN BERRY - WHAT'S IN IT FOR ME
TTITLE12=DEBORAH ALLEN - BREAK THESE CHAINS
TTITLE13=STEVE WARINER - TIPS OF MY FINGERS
TTITLE14=TRACTORS - BABY LIKES TO ROCK IT
EXTD=
EXTT0=
EXTT1=
EXTT2=
EXTT3=
EXTT4=
EXTT5=
EXTT6=
EXTT7=
EXTT8=
EXTT9=
EXTT10=
EXTT11=
EXTT12=
EXTT13=
EXTT14=
PLAYORDER=
